<svg width="125" height="125" viewBox="0 0 125 125" fill="none" xmlns="http://www.w3.org/2000/svg">
<path fill-rule="evenodd" clip-rule="evenodd" d="M125 62.5C125 97.0156 97.0156 125 62.5 125C27.9844 125 0 97.0156 0 62.5C0 27.9844 27.9844 0 62.5 0C97.0156 0 125 27.9844 125 62.5ZM102.542 57.5937C103.552 59.0365 104.125 60.7396 104.188 62.5C104.215 64.2222 103.754 65.917 102.858 67.388C101.962 68.8591 100.668 70.0464 99.125 70.8125C99.1979 71.7292 99.1979 72.6458 99.125 73.5625C99.125 87.5625 82.8125 98.9375 62.6875 98.9375C42.5625 98.9375 26.25 87.5625 26.25 73.5625C26.1796 72.6472 26.1796 71.7278 26.25 70.8125C25.0582 70.2546 24.0013 69.4452 23.152 68.4401C22.3027 67.4349 21.6812 66.2577 21.3301 64.9895C20.979 63.7213 20.9066 62.392 21.1181 61.0932C21.3295 59.7944 21.8197 58.5567 22.5549 57.4653C23.2901 56.3739 24.2529 55.4547 25.3771 54.7707C26.5014 54.0868 27.7604 53.6544 29.0676 53.5033C30.3748 53.3522 31.6993 53.486 32.9499 53.8954C34.2005 54.3048 35.3477 54.9801 36.3125 55.875C43.5142 50.9908 51.9868 48.3187 60.6875 48.1875L65.3125 26.5C65.3644 26.2489 65.4657 26.0107 65.6104 25.799C65.7551 25.5874 65.9404 25.4065 66.1555 25.267C66.3706 25.1275 66.6112 25.032 66.8635 24.9862C67.1157 24.9404 67.3746 24.9451 67.625 25L82.9375 28.0625C83.6853 26.7777 84.8665 25.8016 86.2692 25.3092C87.6718 24.8169 89.204 24.8406 90.5907 25.3762C91.9775 25.9117 93.1279 26.924 93.8356 28.2313C94.5432 29.5386 94.7617 31.0553 94.4519 32.5092C94.142 33.9631 93.3241 35.259 92.1449 36.1642C90.9658 37.0694 89.5026 37.5246 88.018 37.4482C86.5334 37.3719 85.1247 36.7688 84.0446 35.7474C82.9646 34.726 82.284 33.353 82.125 31.875L68.75 29.0625L64.6875 48.5625C73.2825 48.7469 81.6401 51.417 88.75 56.25C89.6991 55.3374 90.8346 54.6412 92.0784 54.2092C93.3221 53.7772 94.6447 53.6196 95.9551 53.7473C97.2656 53.8749 98.5329 54.2849 99.6698 54.9489C100.807 55.6128 101.787 56.5151 102.542 57.5937V57.5937ZM42.7396 65.276C42.2834 65.9586 41.9661 66.7244 41.8058 67.5296C41.6456 68.3349 41.6455 69.1638 41.8056 69.969C42.1289 71.5953 43.085 73.0266 44.4635 73.9479C45.8421 74.8693 47.5302 75.2052 49.1565 74.8819C49.9618 74.7219 50.7276 74.4047 51.4103 73.9487C52.093 73.4926 52.6792 72.9066 53.1354 72.224C54.0568 70.8454 54.3927 69.1573 54.0694 67.531C53.7461 65.9047 52.79 64.4734 51.4115 63.5521C50.0329 62.6307 48.3448 62.2948 46.7185 62.6181C45.0922 62.9414 43.6609 63.8975 42.7396 65.276ZM62.5625 90.75C68.1094 90.9792 73.5677 89.5313 78 86.1875C78.3315 85.8643 78.5211 85.4226 78.5269 84.9596C78.5328 84.4966 78.3545 84.0503 78.0313 83.7187C77.8712 83.5546 77.6804 83.4236 77.4697 83.3332C77.259 83.2428 77.0326 83.1947 76.8033 83.1918C76.3404 83.186 75.894 83.3643 75.5625 83.6875C71.7694 86.4085 67.1612 87.7535 62.5 87.5C57.8445 87.708 53.2577 86.3188 49.5 83.5625C49.1762 83.2967 48.7651 83.1609 48.3467 83.1815C47.9282 83.202 47.5324 83.3775 47.2362 83.6737C46.94 83.9699 46.7645 84.3657 46.744 84.7842C46.7234 85.2026 46.8592 85.6137 47.125 85.9375C51.5592 89.2791 57.0149 90.9798 62.5625 90.75V90.75ZM73.401 74.1979C74.4323 74.8854 75.5781 75.5 76.8125 75.5C77.6602 75.5099 78.501 75.3471 79.2837 75.0215C80.0665 74.696 80.7747 74.2144 81.3653 73.6063C81.9559 72.9981 82.4165 72.2761 82.7191 71.4842C83.0216 70.6923 83.1597 69.847 83.125 69C83.1246 67.9204 82.8446 66.8593 82.3122 65.9202C81.7798 64.981 81.0132 64.1957 80.0871 63.6409C79.161 63.0861 78.1069 62.7806 77.0277 62.7542C75.9484 62.7278 74.8807 62.9815 73.9286 63.4904C72.9765 63.9993 72.1725 64.7462 71.5949 65.6583C71.0172 66.5704 70.6857 67.6165 70.6326 68.6948C70.5794 69.773 70.8065 70.8467 71.2917 71.8111C71.7769 72.7755 72.5036 73.5979 73.401 74.1979V74.1979Z" fill="black"/>
</svg>
