<svg width="125" height="125" viewBox="0 0 125 125" fill="none" xmlns="http://www.w3.org/2000/svg">
<path fill-rule="evenodd" clip-rule="evenodd" d="M125 62.5C125 97.0156 97.0156 125 62.5 125C27.9844 125 0 97.0156 0 62.5C0 27.9844 27.9844 0 62.5 0C97.0156 0 125 27.9844 125 62.5ZM64.7396 46.1406C58.6615 48.6667 46.5104 53.901 28.2917 61.8385C25.3333 63.0156 23.7813 64.1667 23.6406 65.2917C23.401 67.1979 25.7865 67.9479 29.026 68.9635C29.4688 69.1042 29.9271 69.2448 30.3958 69.401C33.5885 70.4375 37.8802 71.651 40.1094 71.6979C42.1354 71.7396 44.3958 70.9063 46.8906 69.1979C63.9115 57.7031 72.6979 51.8958 73.25 51.7708C73.6406 51.6823 74.1823 51.5677 74.5469 51.8958C74.9115 52.2188 74.875 52.8333 74.8385 53C74.599 54.0052 65.2552 62.6979 60.4115 67.1979C58.901 68.599 57.8333 69.5938 57.6146 69.8229C57.125 70.3281 56.625 70.8125 56.1458 71.276C53.1771 74.1302 50.9583 76.276 56.2708 79.776C58.8229 81.4583 60.8646 82.849 62.901 84.2344C65.125 85.75 67.3438 87.2604 70.2188 89.1458C70.9479 89.625 71.6458 90.1198 72.3281 90.6042C74.9167 92.4531 77.2448 94.1094 80.1198 93.849C81.7865 93.6927 83.5156 92.125 84.3906 87.4427C86.4583 76.3698 90.5313 52.3906 91.474 42.5052C91.5313 41.6845 91.4964 40.8598 91.3698 40.0469C91.294 39.3903 90.9743 38.7861 90.474 38.3542C89.7292 37.7448 88.5729 37.6146 88.0521 37.625C85.7031 37.6667 82.099 38.9219 64.7396 46.1406V46.1406Z" fill="black"/>
</svg>
