<svg width="125" height="125" viewBox="0 0 125 125" fill="none" xmlns="http://www.w3.org/2000/svg">
<g clip-path="url(#clip0_1_31)">
<path d="M81.6836 0H43.3125C8.29688 0 -0.00390625 8.30078 -0.00390625 43.3164V81.6875C-0.00390625 116.703 8.29688 125.004 43.3125 125.004H81.6836C116.699 125.004 125 116.703 125 81.6875V43.3164C125 8.30078 116.617 0 81.6836 0ZM100.91 89.1719H91.8359C88.3984 89.1719 87.3398 86.4453 81.1562 80.1797C75.7852 74.9727 73.4062 74.2813 72.082 74.2813C70.2109 74.2813 69.6797 74.8086 69.6797 77.375V85.5742C69.6797 87.7734 68.9883 89.0938 63.168 89.0938C53.543 89.0938 42.8633 83.2734 35.375 72.4297C24.082 56.5391 20.9922 44.6367 20.9922 42.1758C20.9922 40.8516 21.5195 39.6133 24.0625 39.6133H33.1563C35.457 39.6133 36.332 40.6719 37.2266 43.1328C41.7227 56.1133 49.2109 67.4844 52.3008 67.4844C53.4414 67.4844 53.9688 66.957 53.9688 64.0469V50.6406C53.6211 44.457 50.3672 43.9258 50.3672 41.7305C50.3672 40.6719 51.2422 39.6133 52.6445 39.6133H66.9453C68.8789 39.6133 69.5898 40.6719 69.5898 42.9492V61.0352C69.5898 62.9883 70.4648 63.6797 70.9922 63.6797C72.1328 63.6797 73.1094 62.9883 75.2227 60.8711C81.7539 53.5469 86.4336 42.2539 86.4336 42.2539C87.043 40.9297 88.1016 39.6914 90.4023 39.6914H99.4961C102.223 39.6914 102.832 41.0938 102.223 43.0469C101.082 48.3359 89.9531 64.043 89.9531 64.043C88.9961 65.6289 88.6289 66.3203 89.9531 68.0898C90.9297 69.4141 94.1055 72.1602 96.2187 74.6211C100.105 79.0352 103.094 82.7383 103.891 85.3008C104.785 87.8437 103.465 89.168 100.898 89.168L100.91 89.1719Z" fill="black"/>
</g>
<defs>
<clipPath id="clip0_1_31">
<rect width="125" height="125" fill="white"/>
</clipPath>
</defs>
</svg>
